<svg width="40" height="31" viewBox="0 0 40 31" fill="none" xmlns="http://www.w3.org/2000/svg">
<path d="M33.5015 3.20853C31.0582 2.06954 28.4128 1.24286 25.6572 0.765221C25.6331 0.764449 25.609 0.768983 25.5868 0.778505C25.5646 0.788027 25.5447 0.802306 25.5286 0.820334C25.198 1.42657 24.8122 2.21651 24.555 2.82274C21.6322 2.38185 18.6598 2.38185 15.737 2.82274C15.4798 2.19814 15.0941 1.42657 14.745 0.820334C14.7266 0.783592 14.6715 0.765221 14.6164 0.765221C11.8608 1.24286 9.23379 2.06954 6.77211 3.20853C6.75374 3.20853 6.73537 3.2269 6.717 3.24527C1.72016 10.7222 0.342354 17.997 1.02207 25.1983C1.02207 25.235 1.04044 25.2718 1.07718 25.2901C4.38391 27.7151 7.56205 29.1847 10.7034 30.1584C10.7586 30.1768 10.8137 30.1584 10.832 30.1217C11.5669 29.1113 12.2282 28.0458 12.7977 26.9251C12.8345 26.8517 12.7977 26.7782 12.7242 26.7598C11.6771 26.3557 10.6851 25.878 9.71143 25.3269C9.63794 25.2902 9.63794 25.1799 9.69306 25.1248C9.89513 24.9778 10.0972 24.8125 10.2993 24.6655C10.336 24.6288 10.3911 24.6288 10.4279 24.6472C16.7474 27.5314 23.563 27.5314 29.809 24.6472C29.8457 24.6288 29.9009 24.6288 29.9376 24.6655C30.1397 24.8309 30.3418 24.9778 30.5438 25.1432C30.6173 25.1983 30.6173 25.3085 30.5255 25.3453C29.5702 25.9148 28.5598 26.374 27.5127 26.7782C27.4392 26.7965 27.4208 26.8884 27.4392 26.9435C28.027 28.0641 28.6884 29.1296 29.4049 30.14C29.46 30.1584 29.5151 30.1768 29.5702 30.1584C32.73 29.1847 35.9081 27.7151 39.2148 25.2901C39.2516 25.2718 39.2699 25.235 39.2699 25.1983C40.0782 16.8764 37.9289 9.65666 33.575 3.24527C33.5566 3.2269 33.5383 3.20853 33.5015 3.20853ZM13.753 20.8077C11.8608 20.8077 10.2809 19.0625 10.2809 16.9131C10.2809 14.7637 11.8241 13.0185 13.753 13.0185C15.7003 13.0185 17.2434 14.7821 17.2251 16.9131C17.2251 19.0625 15.6819 20.8077 13.753 20.8077ZM26.5574 20.8077C24.6652 20.8077 23.0853 19.0625 23.0853 16.9131C23.0853 14.7637 24.6285 13.0185 26.5574 13.0185C28.5047 13.0185 30.0478 14.7821 30.0295 16.9131C30.0295 19.0625 28.5047 20.8077 26.5574 20.8077Z" fill="white"/>
</svg>
