<svg width="35" height="35" viewBox="0 0 35 35" fill="none" xmlns="http://www.w3.org/2000/svg">
<g clip-path="url(#clip0_75_185)">
<path d="M10.9724 32.747C24.1542 32.747 31.3651 21.8248 31.3651 12.3696C31.3651 12.064 31.3651 11.754 31.352 11.4483C32.7558 10.4321 33.9675 9.17385 34.9301 7.73265C33.6187 8.31085 32.2291 8.69193 30.8062 8.86351C32.305 7.96764 33.4275 6.55806 33.9652 4.89676C32.557 5.73099 31.0158 6.31661 29.409 6.62798C28.3287 5.47753 26.8993 4.71538 25.342 4.4596C23.7847 4.20383 22.1866 4.4687 20.7951 5.21318C19.4036 5.95766 18.2964 7.14021 17.6451 8.57765C16.9937 10.0151 16.8345 11.6272 17.1922 13.1643C14.3426 13.0214 11.5549 12.2811 9.00988 10.9915C6.46484 9.70187 4.21931 7.89168 2.41891 5.67832C1.50492 7.25691 1.22599 9.12418 1.63876 10.901C2.05153 12.6777 3.12506 14.2308 4.64134 15.2448C3.50511 15.2062 2.39385 14.9011 1.3972 14.3541V14.4523C1.39916 16.106 1.97204 17.7083 3.019 18.9884C4.06595 20.2684 5.52277 21.1477 7.14321 21.4777C6.52814 21.6471 5.89278 21.7316 5.2548 21.7287C4.80504 21.7301 4.35618 21.6884 3.91436 21.6043C4.37235 23.0278 5.26413 24.2724 6.46479 25.1638C7.66546 26.0552 9.11487 26.5487 10.61 26.5753C8.07007 28.5702 4.93257 29.6522 1.70284 29.6469C1.13375 29.6493 0.565045 29.6165 0 29.5487C3.27801 31.6385 7.08491 32.7482 10.9724 32.747Z" fill="white"/>
</g>
<defs>
<clipPath id="clip0_75_185">
<rect width="34.9301" height="34.9301" fill="white"/>
</clipPath>
</defs>
</svg>
