<svg width="97" height="104" viewBox="0 0 97 104" fill="none" xmlns="http://www.w3.org/2000/svg">
<path d="M68.3173 62.6847H21.6259C21.4152 62.6851 21.2087 62.6256 21.0305 62.5132C20.8527 62.4005 20.7104 62.2396 20.6204 62.0491C20.5305 61.8591 20.4971 61.6467 20.5233 61.4381C20.5499 61.2291 20.6352 61.0323 20.7699 60.8701L25.7508 55.9851C26.1077 55.5531 26.5562 55.2051 27.0637 54.9665C27.5709 54.7279 28.125 54.6046 28.6862 54.605H75.3775C75.5878 54.605 75.7939 54.665 75.9717 54.7777C76.1491 54.8905 76.291 55.0518 76.3805 55.2418C76.4696 55.4323 76.5029 55.6438 76.4763 55.8525C76.4497 56.0611 76.3644 56.2579 76.2301 56.4196L71.2526 61.3046C70.8954 61.7367 70.4473 62.0842 69.9397 62.3228C69.4321 62.5614 68.8781 62.6851 68.3173 62.6847Z" fill="#FECE00"/>
<path d="M52.9972 0.0037322C52.9364 -0.00125081 52.8756 -0.0012508 52.8152 0.00373223C52.7 0.00825076 52.5864 0.0309704 52.4783 0.0710457L44.4408 3.24916C44.3479 3.2886 44.2466 3.30414 44.146 3.29439C44.0455 3.28459 43.9493 3.24984 43.8656 3.19321C43.7825 3.13662 43.7145 3.05997 43.6684 2.97036C43.622 2.88071 43.5992 2.78097 43.6017 2.68017L43.6017 1.15511C43.6009 0.908954 43.5025 0.673106 43.3281 0.499038C43.1541 0.32497 42.918 0.22683 42.6714 0.225901C42.5954 0.226408 42.5198 0.235403 42.4455 0.252843C37.1951 1.54915 32.5293 4.56316 29.1919 8.8149C25.8546 13.0666 24.037 18.3117 24.0286 23.7148C24.0362 29.3015 25.977 34.7136 29.5221 39.034C33.0673 43.3549 37.9984 46.3181 43.4801 47.4224C43.5409 47.4279 43.6017 47.4279 43.6621 47.4224C43.7774 47.4177 43.891 47.3949 43.9991 47.3552L52.1311 44.0356C52.2131 44.001 52.3022 43.9879 52.3904 43.9968C52.4791 44.0056 52.5636 44.0369 52.637 44.0871C52.7101 44.1374 52.7692 44.2054 52.8093 44.2848C52.8494 44.3642 52.8689 44.452 52.8659 44.5407L52.8659 46.2712C52.8659 46.5187 52.9639 46.7556 53.1391 46.9304C53.3144 47.1057 53.5517 47.2036 53.7992 47.2036C53.8739 47.2032 53.9487 47.1944 54.0217 47.1766C59.3641 45.8637 64.0988 42.7709 67.4459 38.4086C70.7926 34.0463 72.551 28.6748 72.4319 23.1801C72.3124 17.6853 70.3221 12.3951 66.7892 8.18188C63.2564 3.9687 58.3916 1.08408 52.9972 0.0037322ZM48.2389 42.2447C43.733 42.2552 39.378 40.6265 35.9874 37.662C32.5973 34.6975 30.4035 30.6013 29.8173 26.1384C29.2308 21.6757 30.2916 17.1523 32.8012 13.4143C35.3109 9.67621 39.0976 6.97933 43.4531 5.82796L43.5848 5.7943C46.1304 5.14093 48.7866 5.03595 51.3761 5.48637C53.9656 5.93678 56.4296 6.93229 58.6048 8.4068C60.7796 9.88131 62.6158 11.8011 63.9916 14.0388C65.367 16.2764 66.2504 18.7807 66.5828 21.3855C66.9155 23.9903 66.6896 26.636 65.9206 29.1469C65.1512 31.6579 63.856 33.9767 62.1213 35.9492C60.3865 37.9221 58.2514 39.5036 55.8579 40.5889C53.4643 41.6742 50.8672 42.2388 48.2389 42.2447Z" fill="#FECE00"/>
<path d="M4.65359 70.7902H10.1566L14.367 96.6435H10.3044L9.56571 91.5098V91.5836H4.94905L4.21039 96.6435H0.443199L4.65359 70.7902ZM9.08558 88.075L7.27585 75.2961H7.20198L5.42919 88.075H9.08558ZM14.8607 70.7902H18.9234V96.6435H14.8607V70.7902ZM20.4887 70.7902H26.2872L28.8726 89.2938H28.9464L31.5318 70.7902H37.3303V96.6435H33.4892V77.0689H33.4154L30.4607 96.6435H27.0628L24.1082 77.0689H24.0343V96.6435H20.4887V70.7902ZM42.024 70.7902H47.527L51.7374 96.6435H47.6748L46.9361 91.5098V91.5836H42.3194L41.5808 96.6435H37.8136L42.024 70.7902ZM46.456 88.075L44.6462 75.2961H44.5724L42.7996 88.075H46.456ZM57.9206 97.0128C55.9508 97.0128 54.4488 96.4588 53.4147 95.3508C52.3806 94.2182 51.8635 92.6055 51.8635 90.5126V76.9211C51.8635 74.8283 52.3806 73.2278 53.4147 72.1198C54.4488 70.9872 55.9508 70.4209 57.9206 70.4209C59.8903 70.4209 61.3923 70.9872 62.4264 72.1198C63.4605 73.2278 63.9776 74.8283 63.9776 76.9211V79.1371H60.1366V76.6626C60.1366 74.9637 59.4348 74.1142 58.0314 74.1142C56.6279 74.1142 55.9262 74.9637 55.9262 76.6626V90.808C55.9262 92.4823 56.6279 93.3195 58.0314 93.3195C59.4348 93.3195 60.1366 92.4823 60.1366 90.808V85.7482H58.1052V82.0549H63.9776V90.5126C63.9776 92.6055 63.4605 94.2182 62.4264 95.3508C61.3923 96.4588 59.8903 97.0128 57.9206 97.0128ZM65.1087 70.7902H69.1713V96.6435H65.1087V70.7902ZM70.7367 70.7902H75.8335L79.7853 86.2653H79.8592V70.7902H83.4787V96.6435H79.3052L74.43 77.7706H74.3561V96.6435H70.7367V70.7902ZM85.0209 70.7902H96.1009V74.4835H89.0836V81.3162H94.6605V85.0095H89.0836V92.9502H96.1009V96.6435H85.0209V70.7902Z" fill="white"/>
</svg>
